<svg width="10" height="14" viewBox="0 0 10 14" fill="none" xmlns="http://www.w3.org/2000/svg">
<path d="M6.66667 1.66683C6.89333 1.66683 7.12 1.68016 7.34 1.7135C6.06667 3.1535 5.33333 5.0335 5.33333 7.00016C5.33333 8.96683 6.06667 10.8468 7.34 12.2868C7.12 12.3202 6.89333 12.3335 6.66667 12.3335C3.72667 12.3335 1.33333 9.94016 1.33333 7.00016C1.33333 4.06016 3.72667 1.66683 6.66667 1.66683ZM6.66667 0.333496C2.98667 0.333496 0 3.32016 0 7.00016C0 10.6802 2.98667 13.6668 6.66667 13.6668C7.88 13.6668 9.02 13.3335 10 12.7668C8.00667 11.6135 6.66667 9.46683 6.66667 7.00016C6.66667 4.5335 8.00667 2.38683 10 1.2335C9.02 0.666829 7.88 0.333496 6.66667 0.333496Z" fill="#343A40"/>
</svg>
