<svg width="14" height="14" viewBox="0 0 14 14" fill="none" xmlns="http://www.w3.org/2000/svg">
<path d="M11.23 1.84003C10.2433 1.03337 9.02334 0.500033 7.68334 0.366699V1.71337C8.65667 1.83337 9.54334 2.22003 10.2833 2.79337L11.23 1.84003ZM12.3033 6.33337H13.65C13.5167 4.99337 12.9833 3.77337 12.1767 2.7867L11.2233 3.73337C11.7967 4.47337 12.1833 5.36003 12.3033 6.33337ZM11.2233 10.2667L12.1767 11.22C12.9833 10.2334 13.5167 9.0067 13.65 7.67337H12.3033C12.1833 8.64003 11.7967 9.5267 11.2233 10.2667ZM7.68334 12.2867V13.6334C9.02334 13.5 10.2433 12.9667 11.23 12.16L10.2767 11.2067C9.54334 11.78 8.65667 12.1667 7.68334 12.2867ZM7.68334 7.00003V3.6667H6.35001V7.00003H3.68334L7.01667 10.3334L10.35 7.00003H7.68334ZM6.35001 12.2867V13.6334C2.98334 13.3 0.350006 10.46 0.350006 7.00003C0.350006 3.54003 2.98334 0.700033 6.35001 0.366699V1.71337C3.71667 2.04003 1.68334 4.28003 1.68334 7.00003C1.68334 9.72003 3.71667 11.96 6.35001 12.2867Z" fill="black"/>
</svg>
