<svg width="16" height="16" viewBox="0 0 16 16" fill="none" xmlns="http://www.w3.org/2000/svg">
<path d="M4.50666 3.5602L3.30666 2.36686L2.36666 3.30686L3.55999 4.5002L4.50666 3.5602ZM0.666656 7.33353H2.66666V8.66686H0.666656V7.33353ZM7.33332 0.700195H8.66666V2.66686H7.33332V0.700195ZM12.6933 2.36353L13.632 3.30153L12.4387 4.49486L11.5007 3.5562L12.6933 2.36353ZM11.4933 12.4402L12.6867 13.6402L13.6267 12.7002L12.4267 11.5069L11.4933 12.4402ZM13.3333 7.33353H15.3333V8.66686H13.3333V7.33353ZM7.99999 4.0002C5.79332 4.0002 3.99999 5.79353 3.99999 8.00019C3.99999 10.2069 5.79332 12.0002 7.99999 12.0002C10.2067 12.0002 12 10.2069 12 8.00019C12 5.79353 10.2067 4.0002 7.99999 4.0002ZM7.99999 10.6669C6.52666 10.6669 5.33332 9.47353 5.33332 8.00019C5.33332 6.52686 6.52666 5.33353 7.99999 5.33353C9.47332 5.33353 10.6667 6.52686 10.6667 8.00019C10.6667 9.47353 9.47332 10.6669 7.99999 10.6669ZM7.33332 13.3335H8.66666V15.3002H7.33332V13.3335ZM2.36666 12.6935L3.30666 13.6335L4.49999 12.4335L3.55999 11.4935L2.36666 12.6935Z" fill="white"/>
</svg>
