<svg width="12" height="8" viewBox="0 0 12 8" fill="none" xmlns="http://www.w3.org/2000/svg">
<path d="M0 4.6665H1.33333V3.33317H0V4.6665ZM0 7.33317H1.33333V5.99984H0V7.33317ZM0 1.99984H1.33333V0.666504H0V1.99984ZM2.66667 4.6665H12V3.33317H2.66667V4.6665ZM2.66667 7.33317H12V5.99984H2.66667V7.33317ZM2.66667 0.666504V1.99984H12V0.666504H2.66667ZM0 4.6665H1.33333V3.33317H0V4.6665ZM0 7.33317H1.33333V5.99984H0V7.33317ZM0 1.99984H1.33333V0.666504H0V1.99984ZM2.66667 4.6665H12V3.33317H2.66667V4.6665ZM2.66667 7.33317H12V5.99984H2.66667V7.33317ZM2.66667 0.666504V1.99984H12V0.666504H2.66667Z" fill="white"/>
</svg>
