<svg width="12" height="12" viewBox="0 0 12 12" fill="none" xmlns="http://www.w3.org/2000/svg">
<path d="M8.50332 7.50326H7.97665L7.78998 7.32326C8.44332 6.56326 8.83665 5.57659 8.83665 4.50326C8.83665 2.10992 6.89665 0.169922 4.50332 0.169922C2.10998 0.169922 0.169983 2.10992 0.169983 4.50326C0.169983 6.89659 2.10998 8.83659 4.50332 8.83659C5.57665 8.83659 6.56332 8.44326 7.32332 7.78992L7.50332 7.97659V8.50326L10.8366 11.8299L11.83 10.8366L8.50332 7.50326ZM4.50332 7.50326C2.84332 7.50326 1.50332 6.16326 1.50332 4.50326C1.50332 2.84326 2.84332 1.50326 4.50332 1.50326C6.16332 1.50326 7.50332 2.84326 7.50332 4.50326C7.50332 6.16326 6.16332 7.50326 4.50332 7.50326Z" fill="#343A40"/>
</svg>
