<svg width="12" height="14" viewBox="0 0 12 14" fill="none" xmlns="http://www.w3.org/2000/svg">
<path d="M10 9.74653C9.49333 9.74653 9.04 9.94653 8.69333 10.2599L3.94 7.4932C3.97333 7.33986 4 7.18653 4 7.02653C4 6.86653 3.97333 6.7132 3.94 6.55986L8.64 3.81986C9 4.1532 9.47333 4.35986 10 4.35986C11.1067 4.35986 12 3.46653 12 2.35986C12 1.2532 11.1067 0.359863 10 0.359863C8.89333 0.359863 8 1.2532 8 2.35986C8 2.51986 8.02667 2.6732 8.06 2.82653L3.36 5.56653C3 5.2332 2.52667 5.02653 2 5.02653C0.893333 5.02653 0 5.91986 0 7.02653C0 8.1332 0.893333 9.02653 2 9.02653C2.52667 9.02653 3 8.81986 3.36 8.48653L8.10667 11.2599C8.07333 11.3999 8.05333 11.5465 8.05333 11.6932C8.05333 12.7665 8.92667 13.6399 10 13.6399C11.0733 13.6399 11.9467 12.7665 11.9467 11.6932C11.9467 10.6199 11.0733 9.74653 10 9.74653Z" fill="black"/>
</svg>
